<?xml version="1.0" encoding="utf-8"?>
<!-- Generator: Adobe Illustrator 19.2.0, SVG Export Plug-In . SVG Version: 6.00 Build 0)  -->
<svg version="1.1" id="Layer_1" xmlns="http://www.w3.org/2000/svg" xmlns:xlink="http://www.w3.org/1999/xlink" x="0px" y="0px"
	 viewBox="0 0 169.8 173.1" style="enable-background:new 0 0 169.8 173.1;" xml:space="preserve">
<style type="text/css">
	.st0{opacity:0.3;fill:#363942;}
	.st1{fill:#FFFFFF;}
	.st2{fill:#F9F6D7;}
	.st3{fill:#363942;}
	.st4{fill:none;stroke:#F9F7D9;stroke-width:7;stroke-linecap:round;stroke-linejoin:round;stroke-miterlimit:10;}
</style>
<g>
	<ellipse class="st0" cx="84.9" cy="169.7" rx="67.9" ry="3.4"/>
	<g>
		<circle class="st1" cx="85.6" cy="84.9" r="81.9"/>
		<path class="st2" d="M166.8,84.9c0,45.2-36.7,81.9-81.9,81.9S3,130.1,3,84.9c0,23.8,36.7,63.8,81.9,63.8S166.8,109.6,166.8,84.9z"
			/>
		<path class="st3" d="M84.9,169.7C38.1,169.7,0,131.7,0,84.9C0,38.1,38.1,0,84.9,0s84.9,38.1,84.9,84.9
			C169.8,131.7,131.7,169.7,84.9,169.7z M84.9,6C41.4,6,6,41.4,6,84.9s35.4,78.9,78.9,78.9s78.9-35.4,78.9-78.9S128.4,6,84.9,6z"/>
	</g>
	<path class="st3" d="M84.3,118.9c-6.5,0-10-7.7-10.4-8.5c-0.5-1.1-0.2-2.5,0.8-3.3c0.9-0.8,2.3-0.9,3.4-0.3c0,0,2.5,1.5,5.4,1.5
		c3.3,0,7.5-1.7,7.6-1.7c1.1-0.4,2.3-0.2,3.1,0.6c0.8,0.8,1,2.1,0.6,3.1C94.3,111.2,90.8,118.9,84.3,118.9z"/>
	<path class="st3" d="M125.2,82.3c0.4,0.6,1.2,0.7,1.8,0.3c0.9-0.6,2.1-0.9,3.3-0.9s2.3,0.3,3.3,0.9c0.6,0.4,1.4,0.3,1.8-0.3
		c0.9-1.3,1.4-3,1-4.8c-0.5-2.3-2.4-4.2-4.7-4.7c-4-0.8-7.4,2.2-7.4,6C124.1,80.1,124.5,81.3,125.2,82.3z"/>
	<path class="st3" d="M32.9,82.3c0.4,0.6,1.2,0.7,1.8,0.3c0.9-0.6,2.1-0.9,3.3-0.9s2.3,0.3,3.3,0.9c0.6,0.4,1.4,0.3,1.8-0.3
		c0.9-1.3,1.4-3,1-4.8c-0.5-2.3-2.4-4.2-4.7-4.7c-4-0.8-7.4,2.2-7.4,6C31.7,80.1,32.2,81.3,32.9,82.3z"/>
	<path class="st4" d="M125,36.1c3.6,2.9,6.3,5.4,8.3,10.8"/>
	<path class="st4" d="M109.6,27.1c0,0,2.9,1.1,6.1,2.6"/>
</g>
</svg>
